Coordinates
version=1
nRows=20
nColumns=34
inDegrees=yes

Units are S.I. units (second, meters, Newtons, ...)
If the header above contains a line with 'inDegrees', this indicates whether rotational values are in degrees (yes) or radians (no).

endheader
time	pelvis_tilt	pelvis_list	pelvis_rotation	pelvis_tx	pelvis_ty	pelvis_tz	hip_flexion_r	hip_adduction_r	hip_rotation_r	knee_angle_r	ankle_angle_r	subtalar_angle_r	mtp_angle_r	hip_flexion_l	hip_adduction_l	hip_rotation_l	knee_angle_l	ankle_angle_l	subtalar_angle_l	mtp_angle_l	lumbar_extension	lumbar_bending	lumbar_rotation	arm_flex_r	arm_add_r	arm_rot_r	elbow_flex_r	pro_sup_r	arm_flex_l	arm_add_l	arm_rot_l	elbow_flex_l	pro_sup_l
      8.95000000	    -14.06887533	     11.11401949	    -10.76372271	      0.33342625	      0.82200899	      0.01733968	     38.94797147	      1.85869519	      4.91312566	     40.40412535	     18.05664727	    -16.53139053	      0.00000000	     49.93975164	      2.42637163	     -5.21409441	      6.98121610	    -10.77694339	      2.18100025	      0.00000000	     -7.64629836	     -4.73576775	      2.04466555	     82.30117335	     -4.98056747	     66.00684117	    117.02212554	     92.05001392	     90.00931964	      4.87478968	     80.28440113	    119.69359542	     72.16762070
      8.96666670	    -13.98845872	     11.13278837	    -10.44351908	      0.33281353	      0.81590126	      0.01801013	     40.13038343	      2.00658142	      5.05350567	     43.16874338	     18.98276777	    -16.66404773	      0.00000000	     50.42989169	      2.42302160	     -5.35931571	      6.88589320	    -10.93306711	      1.88681042	      0.00000000	     -7.86622763	     -4.78509011	      1.46833340	     82.88002582	     -5.16371491	     65.52009695	    116.79228310	     91.81164808	     90.65100813	      4.89114375	     80.22703552	    118.96230848	     72.11991233
      8.98333330	    -14.05180055	     11.23481263	    -10.06586444	      0.33243482	      0.80691544	      0.01595532	     41.48703570	      1.94751160	      4.86565594	     46.06507008	     20.27107984	    -15.76313981	      0.00000000	     51.20524212	      2.52267197	     -5.73118560	      6.84677304	    -11.13007419	      1.08179573	      0.00000000	     -8.01653145	     -4.75145110	      1.02529480	     83.67912257	     -5.15346407	     65.68719970	    118.61092006	     91.56037826	     91.76824011	      4.56578592	     80.11603070	    118.16137054	     72.11618621
      9.00000000	    -14.12325277	     11.24904810	     -9.64704745	      0.33020511	      0.79889781	      0.01557473	     43.14250045	      1.94194362	      4.64024259	     49.23098594	     21.61732111	    -15.07203400	      0.00000000	     52.17008323	      2.53832924	     -6.19968256	      7.03379415	    -11.25426831	      0.33687762	      0.00000000	     -8.32148174	     -4.53097290	      1.02639873	     84.99345639	     -5.15776506	     66.87999284	    120.60697023	     91.52766424	     92.93187822	      4.78701781	     79.67568039	    117.46530286	     72.18098529
      9.01666670	    -13.76602459	     11.20584632	     -9.54070301	      0.32622613	      0.79902691	      0.01391657	     44.12992478	      1.95877971	      4.59591983	     51.68063616	     22.28132082	    -14.49300495	      0.00000000	     52.46189340	      2.54581107	     -6.59140425	      6.86377320	    -11.72377395	      0.00619151	      0.00000000	     -9.10806422	     -4.34404044	      1.01506559	     85.76355814	     -5.32407585	     67.58934450	    120.06148772	     91.48781117	     93.41233480	      4.26402573	     79.60159882	    116.53278143	     72.19297953
      9.03333330	    -13.64017378	     11.20962081	     -9.47163990	      0.32312005	      0.78979533	      0.01532118	     45.43066903	      2.02641606	      4.45946079	     54.04379749	     23.24667186	    -14.45671145	      0.00000000	     53.18697021	      2.40129505	     -6.87175014	      7.23531425	    -11.82750300	     -0.20912589	      0.00000000	     -9.88417886	     -4.23116404	      0.38496755	     86.82671470	     -5.18424186	     67.94070226	    119.89260919	     91.48171598	     94.57549509	      3.70931927	     79.37468904	    115.49539679	     72.17813566
      9.05000000	    -13.39827785	     11.44749286	     -9.46556289	      0.32362943	      0.78347784	      0.01522346	     46.45925862	      1.84415541	      4.37489178	     56.19154011	     24.36809918	    -13.40978698	      0.00000000	     53.63353968	      2.50654448	     -7.43280207	      7.26433994	    -12.15701915	     -0.47119843	      0.00000000	    -10.50033428	     -4.40065679	      0.36108045	     87.74020811	     -5.08493166	     69.20103569	    118.86305207	     91.42748759	     95.29835828	      3.43405822	     79.72313685	    115.07203593	     72.20163325
      9.06666670	    -13.22144101	     11.49109671	     -9.40299556	      0.32113033	      0.77984898	      0.01590144	     47.34680204	      1.74712654	      4.02050585	     58.12764363	     25.26525149	    -12.44814340	      0.00000000	     54.00663426	      2.53337449	     -8.13395427	      7.20069276	    -12.44244562	     -0.43336214	      0.00000000	    -11.42015836	     -4.14101489	     -0.00769733	     89.00834822	     -4.90125411	     70.87375083	    117.88070658	     91.28698322	     96.47440446	      2.98341138	     80.29332287	    114.36870113	     72.24873717
      9.08333330	    -13.21551306	     11.59373603	     -9.34289077	      0.31871750	      0.77123264	      0.01254752	     48.56858496	      1.59626581	      3.77920010	     60.02959810	     26.09906020	    -12.42295559	      0.00000000	     54.79741721	      2.58917161	     -8.41821975	      7.34325299	    -12.69596367	     -0.39691475	      0.00000000	    -12.37087855	     -3.93372303	      0.15634255	     90.56175648	     -4.77938348	     71.10192577	    117.40123296	     91.21576830	     97.73920552	      3.49387753	     80.14624641	    114.09403753	     72.27939358
      9.10000000	    -13.28710444	     11.88975072	     -9.56291173	      0.31413443	      0.76377696	      0.01185985	     50.04518291	      1.45107449	      3.65096432	     62.06919582	     26.90632654	    -11.05763930	      0.00000000	     55.79775097	      2.57275264	     -9.07149999	      7.39037426	    -13.17211724	     -0.30922234	      0.00000000	    -13.27691365	     -4.00594338	      0.20751257	     92.49261813	     -4.66042381	     72.77447768	    118.26396230	     91.16457203	     99.68414357	      4.03535442	     80.58568132	    113.88062438	     72.40121051
      9.11666670	    -13.40095620	     11.97683541	     -9.76187675	      0.30966005	      0.75793938	      0.01156487	     51.49938081	      1.50767655	      3.35777217	     63.87311089	     27.36234084	     -9.34218560	      0.00000000	     56.67066749	      2.35899483	     -9.20051503	      7.22716746	    -13.58806269	     -0.06006715	      0.00000000	    -14.17514998	     -3.77160529	      0.59467445	     94.37665951	     -5.16846602	     73.86026725	    118.90195916	     90.98976041	    101.48124487	      4.49896087	     81.07619553	    113.72351760	     72.54345556
      9.13333330	    -13.54659282	     12.14993297	     -9.71924377	      0.30970465	      0.75341618	      0.00975522	     52.67752436	      1.29832443	      3.24929604	     65.31594023	     27.99314736	     -8.41101704	      0.00000000	     57.45235643	      2.49120854	     -9.71771784	      7.08987924	    -14.01140780	      0.28459652	      0.00000000	    -14.83058790	     -3.53455160	      0.64315013	     94.90719781	     -5.66182009	     73.94987816	    118.90838821	     90.79851563	    102.39866967	      5.05494916	     81.51169521	    113.22330045	     72.60366501
      9.15000000	    -13.73210241	     12.34910110	     -9.68259612	      0.30797547	      0.74664368	      0.00839445	     53.77550937	      1.01322484	      3.01383660	     66.84222177	     28.69855576	     -6.94198778	      0.00000000	     58.25388464	      2.63326435	    -10.28689788	      6.86724958	    -14.20131827	      0.84267721	      0.00000000	    -15.34293861	     -3.43590979	      0.95453150	     95.26445269	     -6.22756631	     73.76433780	    118.95206728	     90.49116528	    102.91070794	      5.50124489	     81.96241735	    113.17176166	     72.65729463
      9.16666670	    -13.92618857	     12.38039985	     -9.77926171	      0.30296903	      0.74147431	      0.00793247	     54.86506636	      1.23205592	      2.93059905	     68.18231164	     28.75144639	     -6.01342449	      0.00000000	     59.12887005	      2.48104867	    -10.45617128	      6.63029934	    -14.31611362	      1.06945021	      0.00000000	    -16.11858260	     -3.29745290	      0.94531795	     96.16154811	     -6.24896578	     73.50470296	    118.63790437	     90.35712728	    103.78708096	      5.70669508	     82.03833412	    112.96891320	     72.66081048
      9.18333330	    -14.06295230	     12.49376443	     -9.76948054	      0.30050452	      0.73738700	      0.00685288	     56.06894123	      1.17726576	      3.04387455	     69.50041110	     29.50974170	     -5.77952977	      0.00000000	     59.90640989	      2.48813632	    -10.58255193	      6.52314332	    -14.42130558	      1.21936713	      0.00000000	    -16.97185736	     -3.21090199	      0.97559955	     96.73709162	     -6.51166054	     73.28312089	    118.03952507	     90.22029039	    104.41344907	      5.86680231	     82.24708563	    112.78300253	     72.64432371
      9.20000000	    -14.00661897	     12.54240937	     -9.79733008	      0.29736980	      0.73557281	      0.00523781	     56.88461099	      1.09276609	      3.16922995	     70.36225976	     29.64819223	     -5.49721107	      0.00000000	     60.33490449	      2.48639917	    -11.09872942	      6.15063686	    -14.75643739	      1.37015406	      0.00000000	    -17.86466712	     -2.95298642	      1.47630937	     96.81071959	     -6.79205697	     73.44372063	    118.04915215	     90.10556029	    104.31821947	      6.12466320	     82.72627901	    113.10095475	     72.63924772
      9.21666670	    -14.17274365	     12.67106513	     -9.58716201	      0.29735408	      0.72979379	      0.00406795	     57.92953274	      0.84274731	      3.31508621	     71.35621252	     30.55888018	     -6.07487928	      0.00000000	     60.92781697	      2.67475686	    -11.34092195	      5.78788464	    -14.89516248	      1.46540248	      0.00000000	    -18.55865600	     -2.81269810	      1.20862822	     96.95589491	     -6.70089561	     73.72946760	    118.61159117	     90.02627434	    104.78813362	      6.24130992	     82.73233786	    113.01710444	     72.60784950
      9.23333330	    -14.31699104	     12.79572554	     -9.64358098	      0.29296777	      0.72616331	      0.00453449	     59.01457321	      1.02950236	      3.57143802	     72.40446347	     30.50924926	     -6.28418431	      0.00000000	     61.52396317	      2.58954964	    -11.65247435	      5.33357970	    -15.24567531	      1.79758765	      0.00000000	    -19.42600704	     -2.81062667	      1.39576054	     97.50673864	     -6.61256531	     74.47876417	    120.39070502	     89.94392191	    105.48073103	      6.15848935	     82.58145308	    113.20852426	     72.54300089
      9.25000000	    -14.38078276	     12.82179914	     -9.76579347	      0.29033145	      0.72180565	      0.00093395	     59.89603068	      1.40198389	      3.83022201	     73.25427397	     30.66838809	     -6.66577495	      0.00000000	     62.14438539	      2.53866565	    -11.84924343	      4.93145949	    -15.22700704	      2.03132931	      0.00000000	    -20.47823911	     -2.55760440	      1.70575043	     98.16769481	     -6.94685124	     75.42262415	    123.24147796	     89.98520677	    106.32922847	      7.23252912	     82.79718619	    113.15008426	     72.45121129
      9.26666670	    -14.41875417	     12.95422390	     -9.68134442	      0.29078617	      0.71789752	      0.00192879	     60.56867072	      1.54965545	      4.00610493	     74.27444595	     31.10777601	     -6.58136735	      0.00000000	     62.76391455	      2.59606965	    -12.03030852	      4.82138078	    -15.36827291	      2.47030528	      0.00000000	    -21.41700223	     -2.39624108	      1.63927749	     98.76914647	     -6.94320782	     75.89886532	    124.82852332	     90.04185115	    106.83584863	      7.80809081	     83.08528767	    113.07893229	     72.38788250
